<svg xmlns="http://www.w3.org/2000/svg" viewBox="0 0 100 100" class="css-8aabad"><g data-name="Group"><path data-name="Compound Path" d="m85.1 42.2-9.4-20a12.2 12.2 0 1 0-21.1-9.8l-27.7 3.7a12.2 12.2 0 1 0-12.4 18.1l-.2 25.6a12.2 12.2 0 1 0 11 20.1l23.8 10.7A12.2 12.2 0 0 0 71.8 82l10.6-15.6h1.5a12.2 12.2 0 0 0 1.3-24.3Zm-56.6-20V22l26.6-3.6a12 12 0 0 0 .9 1.9L36.3 46.5l-10-17.4a12.1 12.1 0 0 0 2.2-6.9m-4.3 40.5a12.2 12.2 0 0 0-3.9-2.3l.2-26.8 1.2-.5 10.7 18.7Zm24.1 21L28 74.6a11.9 11.9 0 0 0-.3-6.5l7.9-10.6 13.5 23.4a12 12 0 0 0-.8 2.8m14-9.9-2.1-.2a12.1 12.1 0 0 0-7.1 2.3L39.6 52.2l20.7-27.6 2.3 1.1Zm14.3-9.7-8.3 12.4.2-50.4 2.1-.6L79 43.2a12.1 12.1 0 0 0-2.3 20.9Z"/></g></svg>